<svg width="64" height="64" viewBox="0 0 64 64" fill="none" xmlns="http://www.w3.org/2000/svg">
<g clip-path="url(#clip0_880_88)">
<path d="M15.8547 63.034L0.686984 47.3844L4.93293 43.2692L7.57937 45.9997L7.74383 45.8403C7.09029 44.59 6.8625 43.3881 7.06046 42.2346C7.25184 41.0744 7.78958 40.0658 8.67372 39.2089C8.89305 38.9963 9.14268 38.7807 9.4226 38.5621C9.70252 38.3435 9.96149 38.165 10.1995 38.0265L13.9321 41.8778C13.6673 42.0159 13.3302 42.2373 12.9209 42.5418C12.5115 42.8463 12.1561 43.1447 11.8545 43.437C11.2102 44.0614 10.7695 44.7586 10.5322 45.5287C10.2952 46.2853 10.2664 47.051 10.4456 47.8257C10.6318 48.5937 11.0342 49.297 11.6531 49.9355L20.2343 58.7893L15.8547 63.034ZM27.7007 51.5528L12.5329 35.9032L16.9125 31.6585L32.0802 47.3081L27.7007 51.5528ZM12.7778 31.7536C12.1267 32.3846 11.3607 32.712 10.4799 32.7358C9.59939 32.7462 8.86613 32.4491 8.28023 31.8446C7.70091 31.2469 7.43349 30.5115 7.47797 29.6385C7.52268 28.7521 7.87061 27.9934 8.52172 27.3623C9.17283 26.7312 9.93862 26.4105 10.8192 26.4002C11.7 26.3764 12.43 26.6634 13.0094 27.2611C13.5953 27.8656 13.8659 28.6111 13.8211 29.4975C13.7767 30.3705 13.4289 31.1225 12.7778 31.7536ZM37.8847 19.9866L34.1122 24.1172C33.7146 23.844 33.2709 23.6811 32.7814 23.6286C32.2853 23.5694 31.7733 23.6376 31.2451 23.8333C30.7173 24.0155 30.1998 24.3524 29.6926 24.844C29.0141 25.5016 28.58 26.1989 28.3905 26.9359C28.1943 27.6661 28.3234 28.2656 28.7776 28.7342C29.1397 29.1078 29.5966 29.2775 30.1484 29.2433C30.7001 29.2092 31.4183 28.9148 32.3031 28.3603L35.7141 26.1608C37.5522 24.9853 39.1839 24.3785 40.6093 24.3407C42.0348 24.3027 43.2939 24.8476 44.3867 25.9751C45.3808 27.0008 45.9481 28.1964 46.0886 29.5619C46.2359 30.9208 45.9925 32.3291 45.3583 33.7868C44.7244 35.231 43.7221 36.6175 42.3514 37.946C40.261 39.9721 38.1774 41.155 36.1008 41.4947C34.0245 41.8209 32.1559 41.3398 30.4951 40.0515L34.5855 35.6523C35.328 36.1579 36.1106 36.3345 36.9336 36.1824C37.7499 36.0235 38.5487 35.5654 39.3301 34.8082C40.0977 34.0642 40.573 33.3203 40.756 32.5765C40.9392 31.8193 40.8072 31.2031 40.3598 30.7278C39.9711 30.3404 39.4904 30.1805 38.9179 30.2481C38.3387 30.3088 37.6407 30.6034 36.8236 31.1318L33.5656 33.2423C31.7272 34.4312 30.0657 35.0141 28.581 34.9909C27.1032 34.961 25.7982 34.3619 24.6659 33.1936C23.6916 32.1883 23.1264 31.0566 22.9703 29.7984C22.821 28.5335 23.0558 27.2192 23.6746 25.8554C24.3003 24.4849 25.2882 23.1454 26.6385 21.8368C28.6329 19.9037 30.6073 18.8003 32.5616 18.5264C34.5228 18.2459 36.2971 18.7326 37.8847 19.9866ZM59.3377 21.4828C57.7133 23.0571 55.9991 24.0862 54.1951 24.57C52.3914 25.0404 50.5917 24.9801 48.7959 24.389C46.9935 23.791 45.2925 22.6669 43.6928 21.0163C42.1325 19.4065 41.0785 17.6881 40.5307 15.8611C39.9828 14.0342 39.952 12.2264 40.4383 10.4378C40.9314 8.64264 41.9524 6.99437 43.5014 5.49308C44.5432 4.4834 45.6741 3.70996 46.8947 3.17254C48.1155 2.62162 49.3809 2.35023 50.6912 2.35792C52.0081 2.35943 53.3393 2.67635 54.6838 3.30958C56.0218 3.93607 57.3359 4.91495 58.6262 6.24625L59.7816 7.43829L46.4477 20.3616L43.8408 17.6718L53.0522 8.74406C52.4465 8.11915 51.773 7.69832 51.0313 7.48193C50.29 7.26514 49.5441 7.25693 48.7941 7.45689C48.0445 7.64338 47.351 8.04552 46.7136 8.66331C46.0488 9.30765 45.6074 10.0317 45.3896 10.8356C45.1721 11.6261 45.1663 12.4155 45.3722 13.2039C45.5715 13.9855 45.9672 14.6888 46.5595 15.3135L49.038 17.8708C49.7885 18.6451 50.5809 19.1747 51.4151 19.4594C52.2563 19.7376 53.0923 19.7704 53.9232 19.5579C54.7539 19.3454 55.536 18.8838 56.2694 18.173C56.756 17.7014 57.1357 17.2017 57.4084 16.674C57.6811 16.1462 57.8296 15.607 57.8544 15.0561C57.8788 14.5056 57.7754 13.9603 57.5448 13.4198L61.8518 9.75911C62.5812 10.9227 62.9757 12.1739 63.0361 13.5116C63.0969 14.8358 62.821 16.1834 62.2091 17.5537C61.5969 18.911 60.6399 20.2206 59.3377 21.4828Z" fill="#FC1E00"/>
</g>
<defs>
<clipPath id="clip0_880_88">
<rect width="64" height="64" fill="white"/>
</clipPath>
</defs>
</svg>
